<svg width="113" height="113" viewBox="0 0 113 113" fill="none" xmlns="http://www.w3.org/2000/svg">
<rect width="92" height="92" fill="white" style="mix-blend-mode:multiply"/>
<path d="M70.0349 89.125H67.9648V67.5625C67.9648 57.3505 61.0246 48.576 51.0828 46.2185C50.6516 46.115 50.3325 45.7499 50.2922 45.31C50.2491 44.8673 50.4963 44.4475 50.9017 44.2664C55.2631 42.3258 58.0777 37.996 58.0777 33.2379C58.0777 26.5794 52.6612 21.16 46.0027 21.16C39.3442 21.16 33.9248 26.5765 33.9248 33.2379C33.9248 37.996 36.7423 42.3287 41.1008 44.2664C41.5062 44.4475 41.7535 44.8673 41.7103 45.31C41.6701 45.7499 41.351 46.1179 40.9197 46.2185C30.978 48.576 24.0377 57.3505 24.0377 67.5625V89.125H21.9648V67.5625C21.9648 57.2355 28.4537 48.2483 38.0217 44.9104C34.2095 42.3028 31.852 37.95 31.852 33.235C31.852 27.5885 35.1783 22.701 39.9767 20.4355C40.5402 19.0239 40.8248 17.5289 40.8248 15.9879C40.8248 9.3294 35.4083 3.91002 28.7498 3.91002C22.0913 3.91002 16.672 9.32652 16.672 15.9879C16.672 20.7489 19.4895 25.0786 23.848 27.0164C24.2562 27.1975 24.4977 27.6173 24.4575 28.06C24.4172 28.4999 24.0981 28.8679 23.6668 28.9685C13.7251 31.326 6.78484 40.1005 6.78484 50.3125V71.875H4.71484V50.3125C4.71484 39.9855 11.2037 30.9983 20.7717 27.6604C16.9595 25.0528 14.6048 20.7 14.6048 15.9879C14.6048 8.18802 20.95 1.8429 28.7498 1.8429C36.5497 1.8429 42.8948 8.18802 42.8948 15.9879C42.8948 17.2011 42.7453 18.3914 42.4435 19.5443C44.7176 18.9549 47.2821 18.9549 49.5533 19.5443C49.2543 18.3914 49.102 17.2011 49.102 15.9879C49.102 8.18802 55.45 1.8429 63.2499 1.8429C71.0497 1.8429 77.3977 8.18802 77.3977 15.9879C77.3977 20.7029 75.0402 25.0556 71.228 27.6633C80.7989 31.0011 87.2877 39.9884 87.2877 50.3154V71.875H85.2149V50.3125C85.2149 40.1005 78.2746 31.326 68.3329 28.9685C67.9016 28.865 67.5825 28.4999 67.5422 28.06C67.4991 27.6173 67.7463 27.1975 68.1517 27.0164C72.5102 25.0758 75.3249 20.746 75.3249 15.9879C75.3249 9.3294 69.9083 3.91002 63.2499 3.91002C56.5914 3.91002 51.1748 9.32652 51.1748 15.9879C51.1748 17.5289 51.4595 19.0239 52.023 20.4384C56.8213 22.7068 60.1477 27.5914 60.1477 33.2379C60.1477 37.9529 57.7902 42.3056 53.978 44.9133C63.5489 48.2511 70.0377 57.2384 70.0377 67.5654L70.0349 89.125Z" fill="#474747"/>
<circle cx="82.5" cy="82.5" r="30" fill="url(#paint0_linear_3816_27430)" stroke="url(#paint1_linear_3816_27430)"/>
<rect width="40" height="39.1667" transform="translate(62 62)" fill="white" style="mix-blend-mode:multiply"/>
<path d="M98.0138 94.8168L92.6013 91.7569L93.05 90.9943L98.4625 94.0542L98.0138 94.8168ZM65.9875 94.8168L65.5375 94.0542L70.95 90.9943L71.4 91.7569L65.9875 94.8168ZM100.75 85.6958H94.5V84.8146H100.75V85.6958ZM69.5 85.6958H63.25V84.8146H69.5V85.6958ZM82.225 85.6371L81.7763 84.8745L98.0262 75.6948L98.475 76.4586L82.225 85.6371ZM70.95 79.5173L65.5375 76.4574L65.9875 75.6936L71.4 78.7535L70.95 79.5173ZM88.64 74.876L87.8612 74.4354L90.9862 69.1357L91.765 69.5763L88.64 74.876ZM75.36 74.876L72.235 69.5763L73.015 69.1357L76.14 74.4354L75.36 74.876ZM82.45 73.0156H81.55V66.8958H82.45V73.0156Z" fill="#F5F5F5"/>
<defs>
<linearGradient id="paint0_linear_3816_27430" x1="52" y1="82.5" x2="113" y2="82.5" gradientUnits="userSpaceOnUse">
<stop stop-color="#0D74FF"/>
<stop offset="1" stop-color="#51E12B"/>
</linearGradient>
<linearGradient id="paint1_linear_3816_27430" x1="52" y1="82.5" x2="113" y2="82.5" gradientUnits="userSpaceOnUse">
<stop stop-color="#0D74FF"/>
<stop offset="1" stop-color="#51E12B"/>
</linearGradient>
</defs>
</svg>
